<svg width="29" height="29" viewBox="0 0 29 29" fill="none" xmlns="http://www.w3.org/2000/svg">
<path d="M10.8038 3.60107H7.20252C5.71084 3.60107 4.50159 4.81033 4.50159 6.30201V22.5076C4.50159 23.9993 5.71084 25.2086 7.20252 25.2086H10.8038C12.2955 25.2086 13.5047 23.9993 13.5047 22.5076V6.30201C13.5047 4.81033 12.2955 3.60107 10.8038 3.60107Z" fill="#E1E1E6"/>
<path d="M21.6075 3.60107H18.0062C16.5145 3.60107 15.3053 4.81033 15.3053 6.30201V22.5076C15.3053 23.9993 16.5145 25.2086 18.0062 25.2086H21.6075C23.0992 25.2086 24.3084 23.9993 24.3084 22.5076V6.30201C24.3084 4.81033 23.0992 3.60107 21.6075 3.60107Z" fill="#E1E1E6"/>
</svg>
